<svg xmlns="http://www.w3.org/2000/svg" id="logo" viewBox="0 0 974.5 268.7">
  <path fill="#283663" d="M664.1 32.3h-44.5v49.2h-60.8V32.3h-44.5v49.2H473v39.2h41.2V263h44.5V120.7h60.8V263H664V120.7h41.2V81.5H664V32.3zM412.5 151.6h-76.8c2-20.6 17.6-36.6 39.6-36.6 21.9.1 35.9 16.4 37.2 36.6zm45.2 83.5l-27.3-27.3c-9 9.3-25.6 21.6-47.2 21.6-25.6 0-46.5-17-49.5-44.9h128c5.7-65.1-34.9-107.4-87.1-107.4-53.5 0-88.4 43.9-88.4 95.7 0 56.8 41.9 94.4 95.1 94.4 29.9.1 59.1-11.9 76.4-32.1zM769.5 263V6.7H725V263h44.5zm-714.9 0V88.2H10.1V263h44.5zm218.4 0v-42.5H88.2V263H273zm0-209.4V11.1H91.5v42.5H273zM1.4 32.3c0 17 14 30.9 30.9 30.9 17 0 30.9-14 30.9-30.9 0-17-14-30.9-30.9-30.9S1.4 15.4 1.4 32.3zm922 119.3h-76.8c2-20.6 17.6-36.6 39.6-36.6 21.9.1 35.9 16.4 37.2 36.6zm45.2 83.5l-27.3-27.3c-9 9.3-25.6 21.6-47.2 21.6-25.6 0-46.5-17-49.5-44.9h128c5.7-65.1-34.9-107.4-87.1-107.4-53.5 0-88.4 43.9-88.4 95.7 0 56.8 41.9 94.4 95.1 94.4 29.9.1 59.1-11.9 76.4-32.1z"/>
  <path fill="#8C7CC4" d="M217.5 53.6L88.2 220.4H146L273 53.6z"/>
</svg>