<?xml version="1.0" encoding="UTF-8" standalone="no"?>
<!-- Created with Inkscape (http://www.inkscape.org/) -->

<svg
   xmlns:dc="http://purl.org/dc/elements/1.1/"
   xmlns:cc="http://creativecommons.org/ns#"
   xmlns:rdf="http://www.w3.org/1999/02/22-rdf-syntax-ns#"
   xmlns:svg="http://www.w3.org/2000/svg"
   xmlns="http://www.w3.org/2000/svg"
   xmlns:sodipodi="http://sodipodi.sourceforge.net/DTD/sodipodi-0.dtd"
   xmlns:inkscape="http://www.inkscape.org/namespaces/inkscape"
   width="220"
   height="55"
   id="svg2"
   version="1.1"
   inkscape:version="0.48.2 r9819"
   sodipodi:docname="New document 1">
  <title
     id="title3166">Square, Inc. logo</title>
  <defs
     id="defs4">
    <clipPath
       id="clipPath3045"
       clipPathUnits="userSpaceOnUse">
      <path
         id="path3047"
         d="m 0,76.21 288,0 L 288,0 0,0 0,76.21 z"
         inkscape:connector-curvature="0" />
    </clipPath>
  </defs>
  <sodipodi:namedview
     id="base"
     pagecolor="#ffffff"
     bordercolor="#666666"
     borderopacity="1.0"
     inkscape:pageopacity="0.0"
     inkscape:pageshadow="2"
     inkscape:zoom="2.6396832"
     inkscape:cx="66.560336"
     inkscape:cy="26.598993"
     inkscape:document-units="px"
     inkscape:current-layer="layer1"
     showgrid="false"
     units="px"
     inkscape:window-width="1024"
     inkscape:window-height="689"
     inkscape:window-x="0"
     inkscape:window-y="27"
     inkscape:window-maximized="1"
     fit-margin-top="0"
     fit-margin-left="0"
     fit-margin-right="0"
     fit-margin-bottom="0" />
  <metadata
     id="metadata7">
    <rdf:RDF>
      <cc:Work
         rdf:about="">
        <dc:format>image/svg+xml</dc:format>
        <dc:type
           rdf:resource="http://purl.org/dc/dcmitype/StillImage" />
        <dc:title>Square, Inc. logo</dc:title>
        <dc:source>http://www.brandsoftheworld.com</dc:source>
        <dc:description>Converted from Adobe Illustrator to SVG</dc:description>
        <dc:creator>
          <cc:Agent>
            <dc:title>Square, Inc.</dc:title>
          </cc:Agent>
        </dc:creator>
        <dc:publisher>
          <cc:Agent>
            <dc:title>Square, Inc.</dc:title>
          </cc:Agent>
        </dc:publisher>
        <dc:date>2015-07-25</dc:date>
      </cc:Work>
    </rdf:RDF>
  </metadata>
  <g
     inkscape:label="Layer 1"
     inkscape:groupmode="layer"
     id="layer1"
     transform="translate(-623.84206,-727.74211)">
    <g
       id="g3156"
       transform="matrix(0.62481102,0,0,0.62481102,275.95426,282.79555)">
      <path
         inkscape:connector-curvature="0"
         d="m 629.34431,713.57188 -56.7625,0 c -7.80375,0 -14.1925,6.38625 -14.1925,14.1925 l 0,56.7625 c 0,7.8025 6.38875,14.1875 14.1925,14.1875 l 56.7625,0 c 7.80375,0 14.1925,-6.385 14.1925,-14.1875 l 0,-56.7625 c 0,-7.80625 -6.38875,-14.1925 -14.1925,-14.1925 m -1.29,65.15375 c 0,2.48 -2.03125,4.505 -4.51375,4.505 l -45.15875,0 c -2.48125,0 -4.5125,-2.025 -4.5125,-4.505 l 0,-45.1575 c 0,-2.48125 2.03125,-4.5125 4.5125,-4.5125 l 45.15875,0 c 2.4825,0 4.51375,2.03125 4.51375,4.5125 l 0,45.1575 z m -15.4775,-13.5525 c 0,1.42375 -1.16125,2.58125 -2.5775,2.58125 l -18.06,0 c -1.42,0 -2.5775,-1.1575 -2.5775,-2.58125 l 0,-18.05875 c 0,-1.41875 1.1575,-2.57875 2.5775,-2.57875 l 18.06,0 c 1.41625,0 2.5775,1.16 2.5775,2.57875 l 0,18.05875 z"
         style="fill:#242627;fill-opacity:1;fill-rule:nonzero;stroke:none"
         id="path3051" />
      <g
         id="g3148">
        <path
           id="path3055"
           style="fill:#242627;fill-opacity:1;fill-rule:nonzero;stroke:none"
           d="m 682.94419,784.101 c -5.04875,0 -9.90125,-1.945 -13.32,-5.36 -3.05125,-3.04375 -4.7425,-7 -4.7425,-11.1375 l 5.11375,0 c 0,2.77125 1.1475,5.44375 3.24,7.52625 2.46375,2.4525 6.00625,3.865 9.7125,3.865 l 0.0425,0 c 7.135,0 12.93125,-4.99 12.93125,-11.1225 -0.004,-4.60125 -2.54875,-8.2525 -14.92875,-11.11875 -5.03875,-1.16625 -8.435,-2.72625 -10.69875,-4.9075 -2.40625,-2.33375 -3.585,-5.44 -3.585,-9.49375 0,-8.00625 7.1775,-14.52375 16.00125,-14.52375 4.23,0 8.215,1.455 11.22875,4.09875 3.1075,2.72875 4.825,6.41125 4.825,10.36625 l -5.11375,0 c 0,-5.16125 -4.90375,-9.355 -10.94,-9.355 -5.90625,0 -10.8925,4.3125 -10.8925,9.41375 0,4.66375 1.60125,7.40375 10.33125,9.425 9.3225,2.15375 18.86375,5.75625 18.8875,16.09125 0,4.39875 -1.9075,8.51 -5.37,11.5775 -3.3925,3.005 -7.89375,4.655 -12.6725,4.655 l -0.05,0 z"
           inkscape:connector-curvature="0" />
        <path
           id="path3059"
           style="fill:#242627;fill-opacity:1;fill-rule:nonzero;stroke:none"
           d="m 743.14856,798.639 0,-22.38125 -0.14375,0 c -3.31625,5.08 -9.03125,7.6925 -15.03875,7.6925 -11.575,0 -20.76,-8.6925 -20.76,-20.3375 0,-11.58125 9.40125,-20.195 20.76,-20.195 6.0075,0 11.7225,2.61375 15.03875,7.76875 l 0.14375,0 0,-6.78125 4.945,0 0,54.23375 -4.945,0 z m -15.1825,-50.77125 c -9.18125,0 -15.80875,6.84625 -15.80875,15.95625 0,9.04125 6.7725,15.6775 15.80875,15.6775 8.76125,0 15.4675,-7.13625 15.4675,-15.7525 0,-8.6125 -6.70625,-15.88125 -15.4675,-15.88125"
           inkscape:connector-curvature="0" />
        <path
           id="path3063"
           style="fill:#242627;fill-opacity:1;fill-rule:nonzero;stroke:none"
           d="m 834.20569,783.02988 0,-6.77625 -0.14375,0 c -3.3925,5.0775 -9.0375,7.69 -15.04125,7.69 -11.5725,0 -20.7575,-8.6825 -20.7575,-20.33125 0,-11.58 9.38875,-20.19875 20.7575,-20.19875 6.07625,0 11.72375,2.5475 15.04125,7.77 l 0.14375,0 0,-6.77625 4.93625,0 0,38.6225 -4.93625,0 z m -15.185,-35.1625 c -9.1725,0 -15.81,6.84625 -15.81,15.9575 0,9.03625 6.7775,15.6775 15.81,15.6775 8.75625,0 15.46125,-7.1375 15.46125,-15.7525 0,-8.6125 -6.705,-15.8825 -15.46125,-15.8825"
           inkscape:connector-curvature="0" />
        <path
           id="path3067"
           style="fill:#242627;fill-opacity:1;fill-rule:nonzero;stroke:none"
           d="m 853.95669,760.43463 0,22.59875 -4.94875,0 0,-38.63 4.94875,0 0,5.57875 0.13125,0 c 2.125,-4.9425 5.865,-6.215 10.87875,-6.5675 l 0,5.23125 c -6.7775,0.5625 -11.01,4.8675 -11.01,11.78875"
           inkscape:connector-curvature="0" />
        <path
           id="path3071"
           style="fill:#242627;fill-opacity:1;fill-rule:nonzero;stroke:none"
           d="m 907.21106,765.52063 -35.1625,0 c 0.355,7.625 7.42125,13.98125 14.9775,13.98125 5.92875,0 11.72125,-3.3925 13.84,-9.11125 l 5.2175,0 c -2.81625,8.04625 -10.44125,13.5525 -18.99,13.5525 -11.15375,0 -20.12125,-9.105 -20.12125,-20.19375 0,-11.01125 8.9675,-20.33625 20.05375,-20.33625 11.30125,0 20.26875,9.53625 20.26875,20.69625 0,0.4875 -0.0838,0.9125 -0.0838,1.41125 m -20.1175,-17.65625 c -7.70125,0 -13.84125,5.64875 -15.045,13.205 l 30.15375,0 c -1.27125,-7.55625 -7.34,-13.205 -15.10875,-13.205"
           inkscape:connector-curvature="0" />
        <path
           id="path3075"
           style="fill:#242627;fill-opacity:1;fill-rule:nonzero;stroke:none"
           d="m 786.44819,783.07988 0,-6.035 -0.14,0 c -2.2725,4.75875 -7.30875,6.95875 -12.41875,6.95875 -5.03875,0 -10.145,-1.7725 -13.34125,-5.815 -2.7625,-3.47875 -3.4,-8.1625 -3.4,-12.48625 l 0,-21.42875 4.96375,0 0,21.35375 c 0,8.0175 2.90625,13.91 11.7775,13.91 3.26,0 5.815,-0.8575 8.23,-3.1275 3.40875,-3.25625 4.04125,-7.09625 4.04125,-11.63125 l 0,-20.505 4.97,0 0,38.80625 -4.6825,0 z"
           inkscape:connector-curvature="0" />
      </g>
    </g>
  </g>
</svg>
